<?xml version="1.0" encoding="UTF-8"?>
<svg id="Vrstva_2" data-name="Vrstva 2" xmlns="http://www.w3.org/2000/svg" viewBox="0 0 668.37 229.16">
  <defs>
    <style>
      .cls-1 {
        fill: #f9b233;
      }
    </style>
  </defs>
  <g id="Vrstva_1-2" data-name="Vrstva 1">
    <g>
      <path class="cls-1" d="M223.16,6v217.16H6V6h217.16M229.16,0H0v229.16h229.16V0h0Z"/>
      <g>
        <path class="cls-1" d="M51.13,158.23c-3.42-1.69-6.14-4.15-8.16-7.4-2.02-3.25-3.04-7.19-3.04-11.83,0-2.95.55-5.54,1.64-7.78,1.1-2.23,2.53-3.96,4.3-5.19,1.77-1.22,3.58-1.83,5.44-1.83,2.7,0,4.87.87,6.52,2.59,1.65,1.73,2.47,3.78,2.47,6.14,0,2.87-.76,5.17-2.28,6.9-1.52,1.73-3.33,2.97-5.44,3.73-1.44.51-2.47,1.16-3.1,1.96-.63.8-.95,1.92-.95,3.35,0,1.1.53,2.28,1.58,3.54,1.05,1.27,2.53,2.3,4.43,3.1,1.9.8,4.03,1.2,6.39,1.2,6.41,0,9.62-4.89,9.62-14.68v-66.55c0-1.18-.21-1.98-.63-2.4-.42-.42-1.22-.63-2.4-.63h-10.12v-4.05h42.76v4.05h-7.84c-1.1,0-1.88.21-2.34.63-.46.42-.7,1.22-.7,2.4v58.45c0,5.48-1.31,10.25-3.92,14.3-2.62,4.05-5.97,7.15-10.06,9.3-4.09,2.15-8.37,3.23-12.84,3.23-4.13,0-7.91-.84-11.32-2.53Z"/>
        <path class="cls-1" d="M127.74,154.43h10.12c1.18,0,1.98-.23,2.4-.7.42-.46.63-1.24.63-2.34v-74.65c0-1.35-.42-2.4-1.27-3.16-.84-.76-1.98-1.14-3.42-1.14-3.97,0-7.59,2.17-10.88,6.52-3.29,4.35-5.74,9.43-7.34,15.25-.93,3.12-1.58,5.76-1.96,7.91-.38,2.15-.61,3.48-.7,3.99h-4.05l1.01-37.7h75.91l1.01,37.7h-4.05c-.08-.51-.32-1.83-.7-3.99-.38-2.15-1.03-4.79-1.96-7.91-1.6-5.82-4.05-10.9-7.34-15.25-3.29-4.34-6.92-6.52-10.88-6.52-1.44,0-2.57.38-3.42,1.14-.84.76-1.27,1.81-1.27,3.16v74.65c0,1.1.23,1.88.7,2.34.46.46,1.24.7,2.34.7h10.12v4.05h-45.04v-4.05Z"/>
      </g>
      <g>
        <path class="cls-1" d="M310.64,158.46l-22.29-37.63h-16.62v37.63h-9.02v-90.08h27.06c10.05,0,17.68,2.41,22.87,7.22,5.2,4.81,7.8,11.13,7.8,18.94,0,6.53-1.87,12.09-5.61,16.69-3.74,4.6-9.26,7.58-16.56,8.96l23.2,38.27h-10.82ZM271.72,113.49h18.17c7.04,0,12.35-1.72,15.92-5.15,3.56-3.44,5.35-8.03,5.35-13.79s-1.72-10.5-5.16-13.72c-3.44-3.22-8.85-4.83-16.24-4.83h-18.04v37.5Z"/>
        <path class="cls-1" d="M401.75,126.76h-58.38c.26,5.33,1.55,9.88,3.87,13.66,2.32,3.78,5.37,6.64,9.15,8.57,3.78,1.93,7.9,2.9,12.37,2.9,5.84,0,10.76-1.42,14.76-4.25,4-2.84,6.64-6.66,7.93-11.47h9.54c-1.72,6.87-5.39,12.48-11.02,16.82-5.63,4.34-12.69,6.51-21.2,6.51-6.62,0-12.54-1.48-17.78-4.45-5.24-2.96-9.34-7.17-12.31-12.63-2.96-5.45-4.45-11.83-4.45-19.14s1.46-13.7,4.38-19.2c2.92-5.5,7-9.71,12.24-12.63,5.24-2.92,11.21-4.38,17.91-4.38s12.56,1.46,17.59,4.38c5.03,2.92,8.89,6.85,11.6,11.79,2.71,4.94,4.06,10.42,4.06,16.43,0,3.09-.09,5.46-.26,7.09ZM389.7,106.01c-2.19-3.69-5.18-6.49-8.96-8.38-3.78-1.89-7.9-2.84-12.37-2.84-6.7,0-12.42,2.15-17.14,6.44-4.73,4.3-7.35,10.35-7.86,18.17h49.49c.08-5.24-.97-9.71-3.16-13.4Z"/>
        <path class="cls-1" d="M418.69,104.15c2.88-5.45,6.87-9.67,11.98-12.63,5.11-2.96,10.89-4.45,17.33-4.45s12.48,1.55,17.33,4.64c4.85,3.09,8.35,7.05,10.5,11.86v-15.46h9.02v70.36h-9.02v-15.59c-2.24,4.81-5.78,8.79-10.63,11.92-4.86,3.14-10.63,4.7-17.33,4.7s-12.09-1.5-17.2-4.51c-5.11-3.01-9.11-7.26-11.98-12.76-2.88-5.5-4.32-11.86-4.32-19.07s1.44-13.55,4.32-19.01ZM472.37,108.33c-2.32-4.3-5.48-7.6-9.47-9.92-4-2.32-8.4-3.48-13.21-3.48s-9.45,1.12-13.4,3.35c-3.95,2.24-7.07,5.48-9.34,9.73-2.28,4.25-3.42,9.3-3.42,15.14s1.14,10.8,3.42,15.14c2.28,4.34,5.39,7.65,9.34,9.92,3.95,2.28,8.42,3.41,13.4,3.41s9.21-1.16,13.21-3.48c3.99-2.32,7.15-5.63,9.47-9.92,2.32-4.3,3.48-9.28,3.48-14.95s-1.16-10.65-3.48-14.95Z"/>
        <path class="cls-1" d="M514.51,63.1v95.36h-9.02V63.1h9.02Z"/>
        <path class="cls-1" d="M534.87,72.89c-1.29-1.29-1.93-2.88-1.93-4.77s.64-3.46,1.93-4.7c1.29-1.24,2.83-1.87,4.64-1.87s3.35.62,4.64,1.87c1.29,1.25,1.93,2.81,1.93,4.7s-.64,3.48-1.93,4.77-2.84,1.93-4.64,1.93-3.35-.64-4.64-1.93ZM544.02,88.1v70.36h-9.02v-70.36h9.02Z"/>
        <path class="cls-1" d="M576.23,95.7v43.69c0,4.3.82,7.26,2.45,8.89,1.63,1.63,4.51,2.45,8.63,2.45h8.25v7.73h-9.67c-6.36,0-11.08-1.48-14.18-4.45-3.09-2.96-4.64-7.84-4.64-14.63v-43.69h-9.79v-7.6h9.79v-17.65h9.15v17.65h19.33v7.6h-19.33Z"/>
        <path class="cls-1" d="M668.37,88.1l-41.75,103.48h-9.41l13.66-33.51-28.87-69.98h9.92l23.97,60.05,23.2-60.05h9.28Z"/>
      </g>
    </g>
  </g>
</svg>